HIERARCHY
ROOT Hips
{
	OFFSET 0.000000 88.474243 0.000000
	CHANNELS 6 Xposition Yposition Zposition Zrotation Yrotation Xrotation 
	JOINT Hips_Spine
	{
		OFFSET 0.000000 0.000000 0.000000
		CHANNELS 3 Zrotation Yrotation Xrotation
		JOINT Spine
		{
			OFFSET 0.005100 8.711998 -0.691000
			CHANNELS 3 Zrotation Yrotation Xrotation
			JOINT Spine1
			{
				OFFSET -0.009200 8.660301 -1.275000
				CHANNELS 3 Zrotation Yrotation Xrotation
				JOINT Spine2
				{
					OFFSET 0.006300 9.852501 -1.857000
					CHANNELS 3 Zrotation Yrotation Xrotation
					JOINT Spine2_Neck
					{
						OFFSET 0.000000 0.000000 0.000000
						CHANNELS 3 Zrotation Yrotation Xrotation
						JOINT Neck
						{
							OFFSET 0.016300 11.420799 -0.263300
							CHANNELS 3 Zrotation Yrotation Xrotation
							End Site #name: Head
							{
								OFFSET -0.019200 9.262405 2.362500
							}
						}
					}
					JOINT Spine2_LeftShoulder
					{
						OFFSET 0.000000 0.000000 0.000000
						CHANNELS 3 Zrotation Yrotation Xrotation
						JOINT LeftShoulder
						{
							OFFSET 5.616900 6.732201 -0.345700
							CHANNELS 3 Zrotation Yrotation Xrotation
							JOINT LeftArm
							{
								OFFSET 10.664888 -0.183372 -2.440700
								CHANNELS 3 Zrotation Yrotation Xrotation
								JOINT LeftForeArm
								{
									OFFSET 27.459126 0.000000 0.000000
									CHANNELS 3 Zrotation Yrotation Xrotation
									End Site #name: LeftHand
									{
										OFFSET 21.306858 0.000000 0.000000
									}
								}
							}
						}
					}
					JOINT Spine2_RightShoulder
					{
						OFFSET 0.000000 0.000000 0.000000
						CHANNELS 3 Zrotation Yrotation Xrotation
						JOINT RightShoulder
						{
							OFFSET -5.580300 6.737503 -0.344400
							CHANNELS 3 Zrotation Yrotation Xrotation
							JOINT RightArm
							{
								OFFSET -10.679335 -0.188484 -2.383900
								CHANNELS 3 Zrotation Yrotation Xrotation
								JOINT RightForeArm
								{
									OFFSET -27.503529 0.000000 0.000000
									CHANNELS 3 Zrotation Yrotation Xrotation
									End Site #name: RightHand
									{
										OFFSET -21.306808 0.000000 0.000000
									}
								}
							}
						}
					}
				}
			}
		}
	}
	JOINT Hips_LeftUpLeg
	{
		OFFSET 0.000000 0.000000 0.000000
		CHANNELS 3 Zrotation Yrotation Xrotation
		JOINT LeftUpLeg
		{
			OFFSET 6.857700 -6.739601 0.312100
			CHANNELS 3 Zrotation Yrotation Xrotation
			JOINT LeftLeg
			{
				OFFSET -0.367590 -34.731552 -4.572400
				CHANNELS 3 Zrotation Yrotation Xrotation
				End Site #name: LeftFoot
				{
					OFFSET 0.367590 -34.656704 -6.067400
				}
			}
		}
	}
	JOINT Hips_RightUpLeg
	{
		OFFSET 0.000000 0.000000 0.000000
		CHANNELS 3 Zrotation Yrotation Xrotation
		JOINT RightUpLeg
		{
			OFFSET -6.876100 -6.733299 0.301000
			CHANNELS 3 Zrotation Yrotation Xrotation
			JOINT RightLeg
			{
				OFFSET 0.347353 -34.795158 -4.515900
				CHANNELS 3 Zrotation Yrotation Xrotation
				End Site #name: RightFoot
				{
					OFFSET -0.347353 -34.589367 -6.070300
				}
			}
		}
	}
}
MOTION
Frames: 18
Frame Time: 0.041667
0.143533 0.563968 -0.935408 0.125668 26.001647 -7.924072 -0.000000 0.000000 0.000000 -0.391137 -1.694608 -6.035318 2.479840 -1.586841 -4.252456 0.000000 0.000000 0.000000 2.883452 -1.067350 -4.470998 2.796906 -3.815568 -2.728237 1.780363 -1.371047 -4.638381 -19.972427 1.065094 8.612021 -54.082907 14.777014 2.841161 -0.482473 -20.879732 6.311354 1.935093 -1.210000 -2.143677 6.780517 6.714090 1.654755 62.687136 -2.264781 -9.627843 0.718169 48.654030 -0.576933 0.000000 -0.000000 -0.000000 -8.748003 24.281987 -1.187473 -1.619293 3.336311 18.754921 0.000000 0.000000 0.000000 -6.169922 5.856126 -16.994776 6.173100 1.505232 14.767404 
-0.078955 0.556887 -0.882375 -0.574776 27.891880 -8.486884 -0.000000 0.000000 0.000000 0.581161 -1.594341 -6.400656 2.649161 -1.591904 -4.214305 0.000000 0.000000 0.000000 3.016153 -1.007714 -4.435467 2.808050 -3.842912 -2.463731 1.964186 -1.325261 -4.554897 -19.360140 1.022851 8.651207 -55.133571 15.686303 2.065686 -0.539800 -21.674949 6.193462 2.104189 -1.160939 -2.146692 6.972521 6.832639 1.701695 62.574825 -2.494370 -9.561198 0.719813 48.836234 -0.577751 0.000000 -0.000000 -0.000000 -7.839035 24.746994 -0.548486 -1.801357 3.144772 18.403051 0.000000 0.000000 0.000000 -5.342656 6.135429 -17.149236 6.131229 0.831677 14.699843 
-0.266140 0.542155 -0.813752 -1.264672 29.514678 -9.076800 -0.000000 0.000000 0.000000 1.459503 -1.440678 -6.653144 2.799521 -1.584896 -4.157780 0.000000 0.000000 0.000000 3.136285 -0.947004 -4.402745 2.883211 -3.827404 -2.145534 2.125643 -1.279136 -4.463902 -18.796955 0.930547 8.677874 -56.120437 16.486233 1.369091 -0.589851 -22.350972 6.088814 2.255854 -1.106283 -2.140330 7.172570 6.960500 1.751990 62.463430 -2.704271 -9.482865 0.722349 49.067964 -0.578847 0.000000 -0.000000 -0.000000 -6.942823 25.226937 0.206382 -1.988519 2.900648 17.888693 0.000000 -0.000000 0.000000 -4.565548 6.376011 -17.296212 6.101126 0.164427 14.768865 
-0.410763 0.525034 -0.733370 -1.849851 30.799601 -9.590107 -0.000000 -0.000000 0.000000 2.232829 -1.273197 -6.831237 2.930893 -1.563814 -4.104319 0.000000 0.000000 0.000000 3.245062 -0.886895 -4.362427 2.957455 -3.809292 -1.763745 2.269892 -1.229177 -4.369605 -18.264145 0.804919 8.686940 -56.877438 16.964850 0.555890 -0.636769 -22.936613 5.993877 2.390064 -1.046616 -2.125248 7.367716 7.076717 1.809216 62.357580 -2.899857 -9.404499 0.726962 49.358976 -0.577258 0.000000 -0.000000 -0.000000 -6.159366 25.566169 0.985113 -2.178761 2.635826 17.413317 0.000000 -0.000000 0.000000 -3.879468 6.661551 -17.436330 6.070145 -0.560840 14.917740 
-0.509599 0.509040 -0.649433 -2.266890 31.762482 -9.963394 -0.000000 -0.000000 0.000000 2.801799 -1.003942 -7.022695 3.049384 -1.530129 -4.046311 0.000000 0.000000 0.000000 3.342479 -0.828910 -4.302105 2.996980 -3.816855 -1.320233 2.403113 -1.174956 -4.259258 -17.758177 0.673035 8.687934 -57.589678 17.348473 -0.169114 -0.681530 -23.455518 5.900387 2.510646 -0.983770 -2.096548 7.556976 7.169226 1.868874 62.252283 -3.081642 -9.361915 0.733709 49.732984 -0.570032 0.000000 -0.000000 -0.000000 -5.496374 25.677324 1.716215 -2.365144 2.446750 17.019380 0.000000 -0.000000 0.000000 -3.295157 7.028778 -17.544331 6.032521 -1.330162 15.102852 
-0.560970 0.495770 -0.568989 -2.551473 32.223220 -10.251636 -0.000000 -0.000000 0.000000 3.298515 -0.804215 -7.142472 3.161534 -1.499970 -3.975911 0.000000 0.000000 0.000000 3.431771 -0.774809 -4.225536 2.991723 -3.819085 -0.817625 2.529994 -1.123139 -4.135242 -17.291091 0.547454 8.667009 -58.271534 17.636029 -0.810311 -0.727009 -23.946536 5.788007 2.616329 -0.922822 -2.062874 7.762731 7.251171 1.932828 62.127922 -3.269919 -9.352860 0.743786 50.203717 -0.560922 0.000000 -0.000000 -0.000000 -4.939219 25.593333 2.371955 -2.657648 2.227738 16.833911 0.000000 -0.000000 0.000000 -2.799828 7.479939 -17.634138 5.982442 -2.070727 15.367151 
-0.561847 0.486271 -0.498690 -2.697838 32.040362 -10.441423 -0.000000 -0.000000 0.000000 3.719895 -0.704181 -7.197340 3.263485 -1.477825 -3.897382 0.000000 0.000000 0.000000 3.511296 -0.728766 -4.138058 3.000742 -3.671935 -0.424319 2.648647 -1.081288 -4.003909 -16.869164 0.425137 8.634172 -58.895347 17.880605 -1.371111 -0.766288 -24.381716 5.671460 2.710469 -0.869035 -2.021047 8.000124 7.332386 1.998367 61.987125 -3.460160 -9.378210 0.758975 50.850424 -0.544692 0.000000 -0.000000 -0.000000 -4.504115 25.311252 2.947623 -2.969025 1.945247 16.780365 0.000000 -0.000000 0.000000 -2.372640 7.972963 -17.707070 5.943653 -2.688668 15.739160 
-0.508953 0.480433 -0.446981 -2.722399 31.234640 -10.536022 -0.000000 -0.000000 0.000000 4.072506 -0.692346 -7.168960 3.353028 -1.466487 -3.812254 0.000000 0.000000 0.000000 3.577299 -0.694623 -4.042053 2.976619 -3.494559 0.003191 2.754436 -1.049250 -3.875018 -16.507083 0.315194 8.592019 -59.474796 18.050243 -1.847370 -0.798445 -24.752024 5.553432 2.788766 -0.826225 -1.969944 8.226243 7.416652 2.061135 61.837810 -3.628971 -9.391972 0.776074 51.627456 -0.523206 0.000000 -0.000000 -0.000000 -4.171359 24.793264 3.367525 -3.242007 1.685686 16.948748 0.000000 -0.000000 0.000000 -1.994439 8.461133 -17.769862 5.935311 -3.106670 16.228689 
-0.399721 0.478475 -0.418829 -2.636642 29.873478 -10.542016 -0.000000 -0.000000 0.000000 4.355236 -0.774703 -7.103252 3.430672 -1.467459 -3.717668 0.000000 0.000000 0.000000 3.633257 -0.670126 -3.941671 2.891473 -3.278152 0.449743 2.838303 -1.029012 -3.744494 -16.246055 0.234974 8.531744 -59.964584 18.124444 -2.229866 -0.829438 -25.042557 5.455917 2.854117 -0.800391 -1.913550 8.426897 7.498604 2.115784 61.698195 -3.760478 -9.402153 0.796741 52.389532 -0.497862 0.000000 -0.000000 -0.000000 -3.960006 24.035825 3.579519 -3.486042 1.483365 17.422842 0.000000 -0.000000 0.000000 -1.649533 8.923263 -17.840585 5.990559 -3.273208 16.825958 
-0.233926 0.481359 -0.411678 -2.442333 28.007558 -10.466606 -0.000000 -0.000000 0.000000 4.613986 -0.952900 -7.019790 3.495568 -1.476826 -3.607071 0.000000 0.000000 0.000000 3.679083 -0.657607 -3.825320 2.785692 -3.099046 0.846184 2.913943 -1.014964 -3.611504 -16.120337 0.192772 8.462226 -60.350968 18.093113 -2.447204 -0.850911 -25.236245 5.371642 2.912377 -0.788135 -1.851364 8.583076 7.570136 2.161389 61.565796 -3.863995 -9.403095 0.819508 53.046229 -0.470259 0.000000 -0.000000 -0.000000 -3.908444 23.189137 3.686065 -3.695301 1.247605 18.047852 0.000000 -0.000000 0.000000 -1.376239 9.352234 -17.948035 6.095328 -3.306467 17.495127 
-0.013057 0.486893 -0.424498 -2.164427 25.795822 -10.317986 -0.000000 -0.000000 0.000000 4.856200 -1.132120 -6.964436 3.561194 -1.491034 -3.479975 0.000000 0.000000 0.000000 3.720157 -0.652989 -3.708706 2.658928 -2.946663 1.113362 2.985564 -1.011888 -3.478162 -16.118896 0.184390 8.376914 -60.592144 17.984252 -2.473793 -0.905157 -25.302887 5.334818 2.969846 -0.787778 -1.787801 8.701564 7.734562 2.217197 61.455336 -3.960974 -9.388303 0.843756 53.559983 -0.440683 0.000000 -0.000000 -0.000000 -4.009694 22.497278 3.700315 -3.867255 0.980289 18.802344 0.000000 -0.000000 0.000000 -1.191706 9.763941 -18.121988 6.289392 -3.117758 18.316061 
0.248048 0.491482 -0.457047 -1.848721 23.357834 -10.154131 -0.000000 -0.000000 0.000000 5.074018 -1.298473 -6.962281 3.632468 -1.513567 -3.350744 0.000000 0.000000 0.000000 3.764286 -0.652367 -3.575986 2.569819 -2.823387 1.256812 3.058618 -1.017121 -3.350241 -16.236208 0.235446 8.279930 -60.760199 17.824535 -2.380662 -0.968343 -25.291859 5.316764 3.025407 -0.794767 -1.724700 8.768066 7.943577 2.273381 61.370620 -4.057646 -9.360519 0.868041 53.919078 -0.413067 0.000000 -0.000000 -0.000000 -4.225407 22.001079 3.638209 -4.026588 0.719281 19.692461 0.000000 -0.000000 0.000000 -1.094003 10.138355 -18.341552 6.552832 -2.773613 19.243385 
0.551212 0.491955 -0.499462 -1.547351 20.861296 -9.991568 -0.000000 -0.000000 0.000000 5.259000 -1.491981 -7.012115 3.707706 -1.535894 -3.229211 0.000000 0.000000 0.000000 3.811857 -0.653094 -3.448698 2.474289 -2.700783 1.374851 3.137418 -1.024660 -3.229316 -16.471608 0.303329 8.160703 -60.858882 17.695251 -2.178315 -1.030221 -25.380843 5.279854 3.084942 -0.806374 -1.667160 8.765192 8.103982 2.307389 61.319745 -4.143780 -9.351770 0.890835 54.179857 -0.388173 0.000000 -0.000000 -0.000000 -4.572817 21.504949 3.486211 -4.153440 0.508571 20.617518 0.000000 -0.000000 0.000000 -1.074075 10.437329 -18.544149 6.884077 -2.288682 20.202585 
0.890594 0.489046 -0.549035 -1.300956 18.367635 -9.855247 -0.000000 -0.000000 0.000000 5.435865 -1.681266 -7.079284 3.793461 -1.558874 -3.122948 0.000000 0.000000 0.000000 3.867209 -0.650937 -3.330127 2.371297 -2.602479 1.478795 3.225807 -1.029356 -3.121294 -16.800398 0.349269 8.029861 -60.859906 17.758596 -1.897068 -1.097080 -25.547171 5.201703 3.153717 -0.819793 -1.620928 8.689702 8.236218 2.322922 61.306411 -4.234914 -9.392489 0.914143 54.342328 -0.363811 0.000000 -0.000000 -0.000000 -5.020519 20.986147 3.271415 -4.226200 0.326834 21.468273 0.000000 -0.000000 0.000000 -1.141996 10.614348 -18.692916 7.221075 -1.751260 21.196777 
1.256877 0.488002 -0.600707 -1.105141 16.091304 -9.748223 -0.000000 -0.000000 0.000000 5.631897 -1.835165 -7.166177 3.895895 -1.574897 -3.053686 0.000000 0.000000 0.000000 3.932675 -0.641191 -3.225431 2.263892 -2.518686 1.572415 3.326384 -1.023254 -3.033557 -17.168963 0.335117 7.870652 -60.752535 18.046681 -1.681347 -1.158086 -25.713621 5.095312 3.231151 -0.828194 -1.588037 8.566298 8.348216 2.330292 61.326972 -4.354829 -9.437254 0.935732 54.359446 -0.336279 0.000000 -0.000000 -0.000000 -5.525845 20.383190 2.990392 -4.255796 0.162911 22.203784 0.000000 -0.000000 0.000000 -1.282592 10.630488 -18.785493 7.536303 -1.204848 22.167168 
1.644621 0.493459 -0.652571 -1.012404 14.623511 -9.703044 -0.000000 -0.000000 0.000000 5.824723 -1.943368 -7.272438 4.010317 -1.579953 -3.022636 0.000000 0.000000 0.000000 4.010209 -0.623818 -3.139140 2.158790 -2.450399 1.661038 3.438860 -1.011575 -2.960702 -17.555803 0.282521 7.699710 -60.584773 18.452594 -1.554929 -1.195142 -25.847159 4.955524 3.326626 -0.835017 -1.577234 8.415752 8.455472 2.335322 61.383527 -4.517919 -9.441891 0.958242 54.227899 -0.305700 0.000000 -0.000000 -0.000000 -6.017170 19.771396 2.584355 -4.353631 -0.116599 23.024957 0.000000 -0.000000 0.000000 -1.468470 10.474080 -18.807057 7.778465 -0.735951 23.001074 
2.049373 0.507050 -0.703433 -1.016812 13.880236 -9.711716 -0.000000 -0.000000 0.000000 5.945470 -2.015757 -7.400767 4.131408 -1.569576 -3.011793 0.000000 0.000000 0.000000 4.094132 -0.598623 -3.062224 2.045114 -2.402282 1.748752 3.555022 -0.991174 -2.898039 -17.957111 0.214836 7.542866 -60.362797 18.940606 -1.531637 -1.215579 -25.944890 4.809710 3.431300 -0.834049 -1.576415 8.280609 8.571143 2.342124 61.454816 -4.672794 -9.558136 0.979615 54.045802 -0.279336 0.000000 -0.000000 -0.000000 -6.458456 19.226451 2.146675 -4.402414 -0.443492 23.778229 0.000000 -0.000000 0.000000 -1.679240 10.123507 -18.763944 7.922196 -0.405430 23.608907 
2.465626 0.528528 -0.751657 -1.065961 13.710005 -9.734411 -0.000000 -0.000000 0.000000 5.981174 -2.053515 -7.518570 4.231930 -1.533640 -2.978141 0.000000 0.000000 0.000000 4.178079 -0.561949 -2.992090 1.900465 -2.389955 1.813646 3.661526 -0.960521 -2.829295 -18.329762 0.127816 7.414689 -60.097228 19.366303 -1.543742 -1.207764 -25.946578 4.677478 3.531337 -0.815438 -1.573213 8.210597 8.751603 2.358384 61.522819 -4.766179 -9.795020 0.998468 53.936051 -0.256108 0.000000 -0.000000 -0.000000 -6.791662 18.781310 1.664198 -4.297773 -0.623552 24.475187 0.000000 -0.000000 0.000000 -1.913807 9.580434 -18.619268 7.943008 -0.227122 23.994962 
